HIERARCHY
ROOT Hips
{
    OFFSET 0.0 0.0 0.0
    CHANNELS 6 Xposition Yposition Zposition Zrotation Xrotation Yrotation
    JOINT Spine
    {
        OFFSET 0.0 5.0 0.0
        CHANNELS 3 Zrotation Xrotation Yrotation
        JOINT Chest
        {
            OFFSET 0.0 5.0 0.0
            CHANNELS 3 Zrotation Xrotation Yrotation
            JOINT Neck
            {
                OFFSET 0.0 8.0 0.0
                CHANNELS 3 Zrotation Xrotation Yrotation
                JOINT Head
                {
                    OFFSET 0.0 5.0 0.0
                    CHANNELS 3 Zrotation Xrotation Yrotation
                    End Site
                    {
                        OFFSET 0.0 3.0 0.0
                    }
                }
            }
            JOINT LeftShoulder
            {
                OFFSET -5.0 0.0 0.0
                CHANNELS 3 Zrotation Xrotation Yrotation
                JOINT LeftArm
                {
                    OFFSET 0.0 -10.0 0.0
                    CHANNELS 3 Zrotation Xrotation Yrotation
                    JOINT LeftForeArm
                    {
                        OFFSET 0.0 -10.0 0.0
                        CHANNELS 3 Zrotation Xrotation Yrotation
                        End Site
                        {
                            OFFSET 0.0 -3.0 0.0
                        }
                    }
                }
            }
        }
    }
}

MOTION
Frames: 29
Frame Time: 0.033333
960.000000 445.000000 94.035154 0.000000 0.000000 0.000000 0.000000 0.000000 0.000000 23.025492 16.502929 0.000000 180.000000 1.448809 0.000000 21.801409 -1.310865 -0.000000 158.198591 6.902291 30.000000 15.945396 -4.068995 0.000000 18.000000 -0.113450 0.000000
1691.525230 140.756605 107.772018 0.000000 0.000000 0.000000 0.000000 0.000000 0.000000 -163.376529 -10.832244 4.973798 16.623471 2.959081 4.973798 -171.853121 -3.083104 3.759997 99.744051 18.988859 29.763441 -171.126653 -3.537122 -3.759997 0.673538 0.439682 0.313953
1636.048050 128.802021 118.720808 0.000000 0.000000 0.000000 0.000000 0.000000 0.000000 157.904128 6.007375 9.635073 -22.095872 -10.350921 9.635073 -171.936471 -3.958573 7.460697 -143.675701 0.182079 29.057495 -173.500805 -4.535730 -7.460697 0.570999 0.388564 0.626666
1578.156967 80.474526 117.078200 0.000000 0.000000 0.000000 0.000000 0.000000 0.000000 -139.519796 5.127393 13.690942 40.480204 -0.831638 13.690942 -174.507724 -3.679060 11.043737 119.111399 6.655926 27.893295 -173.607258 -4.328690 -11.043737 0.461920 0.435747 0.936907
960.418757 444.998421 111.949135 0.000000 0.000000 0.000000 0.000000 0.000000 0.000000 25.077893 41.300748 16.886559 180.000000 -6.740524 16.886559 23.861935 3.218977 14.452610 156.138065 -6.861693 26.289200 17.903699 -1.843870 -14.452610 18.000000 -0.557829 1.243449
960.523360 444.997533 134.526758 0.000000 0.000000 0.000000 0.000000 0.000000 0.000000 25.638906 -42.937277 19.021130 180.000000 7.268003 19.021130 24.425035 2.260460 17.633558 155.574965 20.630926 24.270510 18.452907 -1.778870 -17.633558 18.000000 -0.649261 1.545085
960.627905 444.996447 121.808172 0.000000 0.000000 0.000000 0.000000 0.000000 0.000000 26.219073 16.705382 19.960535 180.000000 -10.151576 19.960535 25.006291 9.489401 20.536413 154.993709 5.372610 21.869059 19.024920 -7.747907 -20.536413 18.000000 0.640140 1.840623
1126.242828 420.359820 140.718722 0.000000 0.000000 0.000000 0.000000 0.000000 0.000000 31.410514 -9.982033 19.645745 -148.589486 3.800181 19.645745 32.280463 -1.091266 23.115397 -131.603972 1.281589 19.122720 45.585331 2.384789 -23.115397 -13.449727 -0.059680 2.128896
1257.895088 650.549197 130.933367 0.000000 0.000000 0.000000 0.000000 0.000000 0.000000 25.073180 -4.774973 18.096541 -154.926820 -7.766904 18.096541 46.260945 -3.896039 25.329838 -154.651428 -5.748629 16.074804 27.339487 5.682650 -25.329838 -13.619892 -0.664803 2.408768
960.941083 444.992008 136.003686 0.000000 0.000000 0.000000 0.000000 0.000000 0.000000 28.072001 -6.051189 15.410265 180.000000 4.581559 15.410265 26.849221 6.236426 27.144812 153.150779 18.775986 12.773379 20.864045 -5.863463 -27.144812 18.000000 0.448560 2.679134
1163.815842 547.748709 132.650611 0.000000 0.000000 0.000000 0.000000 0.000000 0.000000 117.162728 1.901809 11.755705 -62.837272 19.226280 11.755705 102.363764 -3.572857 28.531695 -47.376450 0.880418 9.270510 104.768601 -3.875734 -28.531695 -6.003489 0.759541 2.938926
961.149372 444.988063 140.151208 0.000000 0.000000 0.000000 0.000000 0.000000 0.000000 29.395983 25.145266 7.362491 180.000000 -2.008146 7.362491 28.146217 -13.767529 29.468618 151.853783 0.993324 5.621439 22.170006 -12.510341 -29.468618 18.000000 1.501088 3.187120
1136.717377 590.104480 149.989863 0.000000 0.000000 0.000000 0.000000 0.000000 0.000000 115.752126 -3.870117 2.506665 -64.247874 -8.806317 2.506665 73.638146 -1.578269 29.940802 -21.842452 0.173551 1.883716 75.369282 -4.013331 -29.940802 -6.767207 0.269707 3.422736
1163.079758 634.077559 148.850246 0.000000 0.000000 0.000000 0.000000 0.000000 0.000000 132.174340 -0.490265 -2.506665 -47.825660 -1.101020 -2.506665 94.255711 3.630560 29.940802 -149.364979 -7.150463 -1.883716 30.021641 5.748829 -29.940802 -5.096180 -1.041956 3.644843
961.460830 444.980668 148.755228 0.000000 0.000000 0.000000 0.000000 0.000000 0.000000 31.497152 33.081252 -7.362491 180.000000 1.715042 -7.362491 30.152455 -11.557547 29.468618 149.847545 7.167431 -5.621439 24.175589 -1.083614 -29.468618 18.000000 0.023362 3.852566
1097.449951 565.089898 155.331967 0.000000 0.000000 0.000000 0.000000 0.000000 0.000000 -119.219568 -1.874405 -11.755705 60.780432 5.076692 -11.755705 -150.180642 -7.186412 28.531695 48.804955 -1.011936 -9.270510 -149.874178 -5.802613 -28.531695 2.713854 0.550830 4.045085
1114.140244 528.302071 148.539824 0.000000 0.000000 0.000000 0.000000 0.000000 0.000000 -142.671523 3.026706 -15.410265 37.328477 -8.112164 -15.410265 -177.395681 1.913724 27.144812 34.687329 -2.928796 -12.773379 161.894167 1.723732 -27.144812 -0.910956 -0.068959 4.221640
1116.433640 479.728639 146.059938 0.000000 0.000000 0.000000 0.000000 0.000000 0.000000 -102.267481 5.228061 -18.096541 77.732519 -6.868381 -18.096541 -163.695626 4.538008 25.329838 38.575767 0.763798 -16.074804 -176.001122 -1.301112 -25.329838 0.706594 -0.117384 4.381533
1135.931282 466.493965 136.156444 0.000000 0.000000 0.000000 0.000000 0.000000 0.000000 -112.868406 -1.673133 -19.645745 67.131594 10.978597 -19.645745 -159.517862 -5.949012 23.115397 36.204678 -2.915489 -19.122720 -154.426613 -5.487726 -23.115397 2.428729 0.528273 4.524135
1141.618767 467.420679 135.400378 0.000000 0.000000 0.000000 0.000000 0.000000 0.000000 -123.086385 9.236929 -19.960535 56.913615 -11.398764 -19.960535 -154.885724 -1.604958 20.536413 36.481623 -5.694498 -21.869059 -153.965441 -5.402405 -20.536413 2.446728 0.537880 4.648882
1150.647926 469.370956 167.662768 0.000000 0.000000 0.000000 0.000000 0.000000 0.000000 -43.953779 -10.980949 -19.021130 136.046221 -29.051627 -19.021130 -154.327268 -6.680450 17.633558 60.745168 -7.633136 -24.270510 -153.350642 -6.470385 -17.633558 2.386216 0.597725 4.755283
1151.529922 496.420240 159.337233 0.000000 0.000000 0.000000 0.000000 0.000000 0.000000 -116.362129 -3.254371 -16.886559 63.637871 -1.590794 -16.886559 -149.081043 -2.506090 14.452610 35.941860 -3.505263 -26.289200 -156.847177 0.209980 -14.452610 2.056513 0.101757 4.842916
1148.402367 515.713574 159.059194 0.000000 0.000000 0.000000 0.000000 0.000000 0.000000 -118.252650 -16.613776 -13.690942 61.747350 12.394035 -13.690942 -138.082896 -1.435357 11.043737 -156.312677 -6.241731 -27.893295 21.649626 9.200700 -11.043737 2.962417 -0.030133 4.911436
1175.363617 533.368646 163.018710 0.000000 0.000000 0.000000 0.000000 0.000000 0.000000 -95.476638 -1.781971 -9.635073 84.523362 2.480447 -9.635073 -113.907461 6.843364 7.460697 -155.995907 -6.405960 -29.057495 12.512064 8.367053 -7.460697 -16.748794 -0.836705 4.960574
1199.533310 485.991104 123.789966 0.000000 0.000000 0.000000 0.000000 0.000000 0.000000 -100.003195 2.374428 -4.973798 79.996805 -6.304495 -4.973798 -86.083188 -1.707893 3.759997 38.843754 1.393535 -29.763441 -106.539452 -2.897313 -3.759997 6.197806 0.015830 4.990134
962.588190 444.938442 136.320735 0.000000 0.000000 0.000000 0.000000 0.000000 0.000000 39.579754 -30.762011 -0.000000 180.000000 15.495802 -0.000000 36.680773 6.798473 0.000000 143.319227 7.756559 -30.000000 29.388385 5.309547 -0.000000 18.000000 -0.549207 5.000000
1142.094727 445.716287 121.651476 0.000000 0.000000 0.000000 0.000000 0.000000 0.000000 -140.228454 -29.776485 4.973798 39.771546 32.828392 4.973798 -156.118008 -6.440890 -3.759997 3.479189 9.031515 -29.763441 -158.005660 -6.045611 3.759997 2.150019 0.608031 4.990134
1164.005928 424.847746 112.392206 0.000000 0.000000 0.000000 0.000000 0.000000 0.000000 -84.241076 20.660430 9.635073 95.758924 20.920040 9.635073 -156.181584 -6.569347 -7.460697 166.928360 0.097323 -29.057495 -154.947270 -6.527561 7.460697 2.644196 0.625152 4.960574
1124.208755 418.286655 125.704657 0.000000 0.000000 0.000000 0.000000 0.000000 0.000000 -117.427077 -21.439596 13.690942 62.572923 23.555684 13.690942 -155.943063 -5.538265 -11.043737 14.023837 10.921032 -27.893295 -157.382674 -5.229258 11.043737 2.188130 0.520249 4.911436
